<svg width="619" height="515" viewBox="0 0 619 515" fill="none" xmlns="http://www.w3.org/2000/svg">
<path d="M514.966 486.28L513.895 500.563L492.104 493.422L501.033 482.71L514.966 486.28Z" fill="#FEB8B8"/>
<path d="M594.276 481.639L593.203 495.563L581.056 497.349L573.911 490.565L582.128 477.354L594.276 481.639Z" fill="#FEB8B8"/>
<path d="M603.207 303.83C603.207 303.83 612.853 315.256 600.706 332.751C588.559 350.246 573.913 367.385 573.913 367.385L546.759 418.799C546.759 418.799 532.826 469.142 529.611 470.57C526.395 471.998 524.61 466.286 526.395 472.355C528.181 478.425 527.11 478.068 525.681 478.427C524.252 478.785 520.323 478.07 521.751 480.569C523.18 483.069 524.252 483.069 521.394 483.069C518.536 483.069 517.465 481.284 517.465 483.783C517.465 486.282 514.964 491.995 514.964 491.995C514.964 491.995 497.458 486.996 496.744 484.854C496.03 482.711 501.388 481.64 500.316 479.498C499.245 477.357 498.888 477.356 498.888 474.143C498.888 470.93 501.032 470.216 501.032 470.216C501.032 470.216 502.817 469.502 502.103 468.073C501.389 466.644 498.531 467.359 502.103 465.574C505.676 463.788 520.324 409.159 520.324 409.159C520.324 409.159 520.324 382.021 524.968 373.096C529.612 364.172 526.04 300.616 537.118 299.902C548.196 299.188 603.207 303.83 603.207 303.83Z" fill="#2F2E41"/>
<path d="M599.635 324.182L597.491 379.523C597.491 379.523 608.208 433.08 604.636 449.504C601.063 465.928 603.564 463.786 601.421 466.642C599.277 469.499 597.491 468.07 599.277 470.57C601.063 473.069 602.131 473.783 599.277 476.641C596.422 479.499 594.99 486.282 594.99 486.282L576.77 484.497C576.77 484.497 581.414 476.285 579.625 474.499C577.835 472.714 573.194 475.57 576.77 471.647C580.346 467.723 582.487 469.504 580.343 467.719C578.199 465.934 574.984 466.648 577.842 463.792C580.699 460.935 583.917 460.939 581.057 459.864C578.198 458.79 574.982 459.864 576.413 457.722C577.844 455.579 579.628 453.08 579.628 453.08L575.342 420.589C575.342 420.589 570.34 409.878 571.769 405.236C573.198 400.595 565.694 362.391 565.694 362.391L599.635 324.182Z" fill="#2F2E41"/>
<path d="M591.777 488.779C591.777 488.779 595.349 485.209 596.421 487.351C597.492 489.494 605.35 508.774 600.708 510.202C596.065 511.63 589.276 513.055 585.703 511.987C582.131 510.919 574.629 505.916 565.698 505.916C556.767 505.916 549.265 501.988 549.265 500.56C549.265 499.132 547.836 490.563 554.623 490.563C561.41 490.563 573.914 482.708 573.914 482.708C573.914 482.708 576.769 476.995 578.201 477.353C579.634 477.71 578.558 489.135 578.558 489.135C578.558 489.135 586.774 496.991 591.777 488.779Z" fill="#2F2E41"/>
<path d="M512.466 493.42C512.466 493.42 515.682 485.566 518.897 487.349C522.112 489.132 519.968 511.269 519.968 511.269C519.968 511.269 517.114 515.91 508.894 514.84C500.674 513.769 478.885 511.269 473.883 512.34C468.881 513.411 455.306 507.342 458.879 499.129C458.879 499.129 460.665 494.488 469.239 494.845C477.814 495.202 493.532 484.847 493.532 484.847C493.532 484.847 496.033 477.706 496.748 478.42C497.462 479.134 498.176 491.631 498.176 491.631C498.176 491.631 507.465 497.705 512.466 493.42Z" fill="#2F2E41"/>
<path d="M559.266 164.227C570.71 164.227 579.986 154.955 579.986 143.518C579.986 132.081 570.71 122.809 559.266 122.809C547.822 122.809 538.545 132.081 538.545 143.518C538.545 154.955 547.822 164.227 559.266 164.227Z" fill="#FEB8B8"/>
<path d="M575.342 144.945C575.342 144.945 586.416 167.082 590.346 169.225C594.276 171.367 563.553 184.578 563.553 184.578C563.553 184.578 558.551 162.798 552.478 158.157C546.405 153.516 575.342 144.945 575.342 144.945Z" fill="#FEB8B8"/>
<path d="M543.547 325.967L542.118 339.534C542.118 339.534 526.757 334.179 531.758 324.182L543.547 325.967Z" fill="#FEB8B8"/>
<path d="M537.476 305.616C548.193 317.038 604.993 307.398 604.993 307.398L604.282 299.187L611.427 291.694L609.284 256.701C609.284 256.701 615.71 240.279 616.781 215.285C616.846 213.749 616.753 212.21 616.505 210.693C612.822 188.304 576.344 173.884 575.342 174.223C574.838 174.389 569.469 177.185 563.865 180.127C557.432 183.505 550.695 187.077 550.695 187.077C542.12 190.295 543.55 241.71 540.69 246.351C537.829 250.992 540.69 267.052 540.69 267.052L537.477 282.404C537.477 282.404 526.756 294.193 537.476 305.616Z" fill="#F0F0F0"/>
<path opacity="0.1" d="M572.099 192.268C572.099 192.268 582.102 222.26 579.959 242.611C577.815 262.963 554.594 321.162 554.594 321.162L546.738 325.446V335.443L541.21 320.478L556.412 288.71C556.412 288.71 537.443 179.058 572.099 192.268Z" fill="black"/>
<path opacity="0.1" d="M562.718 183.269C573.082 177.557 588.802 192.559 605.235 208.621C611.136 214.387 614.549 213.807 616.506 210.692C612.823 188.303 576.346 173.883 575.344 174.222C574.84 174.388 569.47 177.184 563.867 180.126L562.718 183.269Z" fill="black"/>
<path d="M562.723 180.509L567.01 168.727C567.01 168.727 596.304 154.802 615.595 168.727L618.81 188.721C618.81 188.721 621.665 221.926 605.235 205.859C588.805 189.793 573.081 174.796 562.723 180.509Z" fill="#F0F0F0"/>
<path d="M571.056 187.434C571.056 187.434 581.059 217.426 578.915 237.778C576.771 258.129 553.55 316.328 553.55 316.328L545.691 320.615V330.612L529.258 325.971L532.83 314.189C532.83 314.189 527.114 307.048 531.045 304.905C534.975 302.763 534.26 290.98 534.26 290.98C534.26 290.98 536.402 174.223 571.056 187.434Z" fill="#F0F0F0"/>
<path d="M577.738 152.187C577.4 150.586 577.445 148.864 576.678 147.419C575.527 145.253 572.881 144.347 570.436 144.133C567.314 143.862 564.169 144.402 561.043 144.188C557.917 143.975 554.578 142.784 553.022 140.066C552.401 138.982 552.095 137.706 551.272 136.766C549.559 134.81 546.435 135.113 543.973 135.951C541.511 136.789 538.943 138.014 536.426 137.358C534.309 131.44 536.915 124.613 541.423 120.23C545.931 115.848 552.01 113.489 558.049 111.732C566.013 109.413 574.975 108.043 582.297 111.938C592.915 117.586 596.662 132.535 595.682 143.678C595.312 147.89 594.707 152.659 591.3 155.502C586.307 159.67 579.246 159.313 577.738 152.187Z" fill="#2F2E41"/>
<path d="M447.729 0.251953H0.190189V286.713H447.729V0.251953Z" fill="#E6E6E6"/>
<path d="M436.397 36.1831H14.4524V269.768H436.397V36.1831Z" fill="white"/>
<path d="M447.539 0H0V19.0022H447.539V0Z" fill="#00ADB5"/>
<path d="M14.1297 13.2372C16.076 13.2372 17.6538 11.6603 17.6538 9.71505C17.6538 7.76981 16.076 6.19287 14.1297 6.19287C12.1833 6.19287 10.6055 7.76981 10.6055 9.71505C10.6055 11.6603 12.1833 13.2372 14.1297 13.2372Z" fill="white"/>
<path d="M27.5054 13.2372C29.4518 13.2372 31.0296 11.6603 31.0296 9.71505C31.0296 7.76981 29.4518 6.19287 27.5054 6.19287C25.5591 6.19287 23.9813 7.76981 23.9813 9.71505C23.9813 11.6603 25.5591 13.2372 27.5054 13.2372Z" fill="white"/>
<path d="M40.8812 13.2372C42.8276 13.2372 44.4054 11.6603 44.4054 9.71505C44.4054 7.76981 42.8276 6.19287 40.8812 6.19287C38.9349 6.19287 37.357 7.76981 37.357 9.71505C37.357 11.6603 38.9349 13.2372 40.8812 13.2372Z" fill="white"/>
<path d="M88.2729 68.9229L60.3627 96.469L88.2729 124.014L94.5527 117.738L73.4479 96.6424L94.7291 75.3732L88.2729 68.9229Z" fill="#00ADB5"/>
<path d="M111.142 68.9229L139.051 96.469L111.142 124.014L104.862 117.738L125.968 96.6431L104.685 75.3732L111.142 68.9229Z" fill="#00ADB5"/>
<path d="M201.419 75.8354C199.136 75.8354 197.286 77.1478 197.286 78.7658C197.286 80.3839 199.136 81.6962 201.419 81.6962H396.266C398.548 81.6962 400.399 80.3839 400.399 78.7658C400.399 77.1478 398.548 75.8354 396.266 75.8354H201.419Z" fill="#E6E6E6"/>
<path d="M394.328 236.385H66.5481C63.1974 236.385 60.482 234.451 60.4783 232.069V174.249C60.482 171.867 63.1974 169.934 66.5481 169.934H394.328C397.679 169.934 400.395 171.867 400.398 174.249V232.068C400.395 234.451 397.679 236.382 394.328 236.385ZM66.5481 171.658C64.5375 171.658 62.9083 172.819 62.9061 174.248V232.067C62.9061 233.496 64.5375 234.655 66.5481 234.656H394.328C396.339 234.656 397.968 233.496 397.97 232.067V174.249C397.97 172.82 396.339 171.661 394.328 171.66L66.5481 171.658Z" fill="#E6E6E6"/>
<path d="M100.302 217.791C108.401 217.791 114.967 211.229 114.967 203.134C114.967 195.04 108.401 188.478 100.302 188.478C92.2028 188.478 85.6372 195.04 85.6372 203.134C85.6372 211.229 92.2028 217.791 100.302 217.791Z" fill="#E6E6E6"/>
<path d="M141.663 191.413C140.885 191.412 140.139 191.719 139.588 192.268C139.038 192.817 138.728 193.562 138.727 194.339C138.726 195.116 139.034 195.862 139.583 196.412C140.132 196.963 140.877 197.272 141.655 197.273H279.893C280.671 197.273 281.417 196.965 281.966 196.415C282.516 195.866 282.825 195.12 282.825 194.343C282.825 193.566 282.516 192.82 281.966 192.271C281.417 191.721 280.671 191.413 279.893 191.413H141.663Z" fill="#00ADB5"/>
<path d="M141.663 208.996C141.278 208.996 140.896 209.071 140.54 209.218C140.184 209.365 139.861 209.58 139.588 209.852C139.038 210.401 138.728 211.146 138.727 211.923C138.726 212.7 139.034 213.446 139.583 213.996C140.132 214.546 140.877 214.856 141.655 214.857H201.143C201.92 214.858 202.666 214.55 203.217 214.001C203.768 213.452 204.077 212.707 204.078 211.93C204.079 211.153 203.771 210.407 203.222 209.857C202.673 209.307 201.928 208.997 201.15 208.996H141.663Z" fill="#00ADB5"/>
<path d="M199.996 93.3916C199.26 93.451 198.572 93.7854 198.071 94.3284C197.57 94.8715 197.291 95.5832 197.291 96.322C197.291 97.0608 197.57 97.7725 198.071 98.3155C198.572 98.8585 199.26 99.193 199.996 99.2524H327.694C328.431 99.193 329.118 98.8585 329.619 98.3155C330.121 97.7725 330.399 97.0608 330.399 96.322C330.399 95.5832 330.121 94.8715 329.619 94.3284C329.118 93.7854 328.431 93.451 327.694 93.3916H199.996Z" fill="#E6E6E6"/>
<path d="M200.837 110.948C198.876 110.948 197.286 112.26 197.286 113.878C197.286 115.496 198.876 116.809 200.837 116.809H368.226C370.187 116.809 371.776 115.496 371.776 113.878C371.776 112.26 370.187 110.948 368.226 110.948H200.837Z" fill="#E6E6E6"/>
</svg>
