<svg width="80" height="80" viewBox="0 0 80 80" fill="none" xmlns="http://www.w3.org/2000/svg">
<path fill-rule="evenodd" clip-rule="evenodd" d="M23.5091 0.24C27.7745 0.0436363 29.1345 0 40 0C50.8655 0 52.2255 0.0472727 56.4873 0.24C60.7491 0.432727 63.6582 1.11273 66.2036 2.09818C68.8691 3.10545 71.2873 4.68 73.2873 6.71636C75.3236 8.71273 76.8946 11.1273 77.8982 13.7964C78.8873 16.3418 79.5636 19.2509 79.76 23.5055C79.9564 27.7782 80 29.1382 80 40C80 50.8655 79.9527 52.2255 79.76 56.4909C79.5673 60.7455 78.8873 63.6545 77.8982 66.2C76.8945 68.8694 75.321 71.288 73.2873 73.2873C71.2873 75.3236 68.8691 76.8946 66.2036 77.8982C63.6582 78.8873 60.7491 79.5636 56.4945 79.76C52.2255 79.9564 50.8655 80 40 80C29.1345 80 27.7745 79.9527 23.5091 79.76C19.2545 79.5673 16.3455 78.8873 13.8 77.8982C11.1306 76.8944 8.71207 75.3209 6.71273 73.2873C4.67775 71.2897 3.10296 68.8723 2.09818 66.2036C1.11273 63.6582 0.436364 60.7491 0.24 56.4945C0.0436363 52.2218 0 50.8618 0 40C0 29.1345 0.0472727 27.7745 0.24 23.5127C0.432727 19.2509 1.11273 16.3418 2.09818 13.7964C3.10445 11.1276 4.68043 8.71023 6.71636 6.71273C8.71287 4.67819 11.129 3.10343 13.7964 2.09818C16.3418 1.11273 19.2509 0.436364 23.5055 0.24H23.5091ZM56.1636 7.44C51.9455 7.24727 50.68 7.20727 40 7.20727C29.32 7.20727 28.0545 7.24727 23.8364 7.44C19.9345 7.61818 17.8182 8.26909 16.4073 8.81818C14.5418 9.54545 13.2073 10.4073 11.8073 11.8073C10.4802 13.0984 9.45884 14.6701 8.81818 16.4073C8.26909 17.8182 7.61818 19.9345 7.44 23.8364C7.24727 28.0545 7.20727 29.32 7.20727 40C7.20727 50.68 7.24727 51.9455 7.44 56.1636C7.61818 60.0655 8.26909 62.1818 8.81818 63.5927C9.45818 65.3273 10.48 66.9018 11.8073 68.1927C13.0982 69.52 14.6727 70.5418 16.4073 71.1818C17.8182 71.7309 19.9345 72.3818 23.8364 72.56C28.0545 72.7527 29.3164 72.7927 40 72.7927C50.6836 72.7927 51.9455 72.7527 56.1636 72.56C60.0655 72.3818 62.1818 71.7309 63.5927 71.1818C65.4582 70.4546 66.7927 69.5927 68.1927 68.1927C69.52 66.9018 70.5418 65.3273 71.1818 63.5927C71.7309 62.1818 72.3818 60.0655 72.56 56.1636C72.7527 51.9455 72.7927 50.68 72.7927 40C72.7927 29.32 72.7527 28.0545 72.56 23.8364C72.3818 19.9345 71.7309 17.8182 71.1818 16.4073C70.4546 14.5418 69.5927 13.2073 68.1927 11.8073C66.9016 10.4803 65.3298 9.45895 63.5927 8.81818C62.1818 8.26909 60.0655 7.61818 56.1636 7.44V7.44ZM34.8909 52.3309C37.7442 53.5187 40.9214 53.679 43.8797 52.7844C46.8381 51.8899 49.3942 49.9961 51.1113 47.4263C52.8285 44.8566 53.6002 41.7704 53.2947 38.6949C52.9892 35.6194 51.6255 32.7454 49.4364 30.5636C48.0409 29.169 46.3535 28.1011 44.4958 27.4369C42.638 26.7727 40.6561 26.5286 38.6927 26.7222C36.7293 26.9159 34.8333 27.5425 33.1411 28.5568C31.4489 29.5712 30.0027 30.9482 28.9066 32.5886C27.8104 34.2289 27.0916 36.092 26.8019 38.0435C26.5122 39.995 26.6587 41.9865 27.2311 43.8746C27.8034 45.7627 28.7872 47.5004 30.1117 48.9626C31.4362 50.4249 33.0685 51.5752 34.8909 52.3309ZM25.4618 25.4618C27.371 23.5526 29.6375 22.0382 32.132 21.005C34.6265 19.9717 37.3 19.4399 40 19.4399C42.7 19.4399 45.3735 19.9717 47.868 21.0049C50.3625 22.0382 52.629 23.5526 54.5382 25.4618C56.4474 27.371 57.9618 29.6375 58.9951 32.132C60.0283 34.6265 60.5601 37.3 60.5601 40C60.5601 42.7 60.0283 45.3735 58.9951 47.868C57.9618 50.3625 56.4474 52.629 54.5382 54.5382C50.6824 58.3939 45.4529 60.5601 40 60.5601C34.5471 60.5601 29.3176 58.3939 25.4618 54.5382C21.6061 50.6824 19.4399 45.4529 19.4399 40C19.4399 34.5471 21.6061 29.3176 25.4618 25.4618V25.4618ZM65.12 22.5018C65.5931 22.0555 65.9719 21.5188 66.2338 20.9235C66.4958 20.3282 66.6357 19.6864 66.6452 19.0361C66.6546 18.3858 66.5335 17.7402 66.289 17.1375C66.0445 16.5348 65.6816 15.9873 65.2217 15.5274C64.7618 15.0675 64.2143 14.7046 63.6116 14.4601C63.0089 14.2156 62.3633 14.0945 61.713 14.1039C61.0627 14.1134 60.4209 14.2533 59.8256 14.5153C59.2303 14.7772 58.6936 15.156 58.2473 15.6291C57.3793 16.5492 56.9041 17.7714 56.9226 19.0361C56.941 20.3009 57.4516 21.5087 58.346 22.4031C59.2404 23.2975 60.4482 23.8081 61.713 23.8265C62.9777 23.845 64.1999 23.3698 65.12 22.5018V22.5018Z" fill="#EEEEEE"/>
</svg>
