<svg width="80" height="80" viewBox="0 0 80 80" fill="none" xmlns="http://www.w3.org/2000/svg">
<g clip-path="url(#clip0)">
<path d="M16.61 23.991C20.638 23.991 23.9033 20.7256 23.9033 16.6976C23.9033 12.6696 20.638 9.4043 16.61 9.4043C12.582 9.4043 9.31665 12.6696 9.31665 16.6976C9.31665 20.7256 12.582 23.991 16.61 23.991Z" fill="#EEEEEE"/>
<path d="M30.7704 39.8115V80.2749H43.3337V60.2649C43.3337 54.9849 44.3271 49.8715 50.8737 49.8715C57.3304 49.8715 57.4104 55.9082 57.4104 60.5982V80.2782H69.9804V58.0882C69.9804 47.1882 67.6337 38.8115 54.8937 38.8115C48.7771 38.8115 44.6771 42.1682 43.0004 45.3449H42.8304V39.8115H30.7704V39.8115ZM10.2971 39.8115H22.8804V80.2749H10.2971V39.8115Z" fill="#EEEEEE"/>
</g>
<defs>
<clipPath id="clip0">
<rect width="80" height="80" fill="white"/>
</clipPath>
</defs>
</svg>
