<svg width="732" height="524" viewBox="0 0 732 524" fill="none" xmlns="http://www.w3.org/2000/svg">
<g clip-path="url(#clip0)">
<path opacity="0.1" d="M720.409 352.282C703.431 387.31 668.958 410.733 633.232 426.18C585.136 446.983 532.171 455.233 479.934 451.744C470.779 451.135 461.653 450.161 452.554 448.823C420.952 444.212 390.143 435.239 361.006 422.16C352.597 418.373 344.359 414.238 336.291 409.755C322.815 402.285 309.902 393.839 297.658 384.486C294.578 382.134 291.54 379.722 288.546 377.251C286.469 375.538 284.411 373.787 282.322 372.087C277.913 368.502 273.376 365.096 268.315 362.546C266.788 361.776 265.223 361.085 263.625 360.475C247.6 354.378 229.12 356.679 212.436 361.434C199.746 365.051 187.375 370.004 174.698 373.538C169.059 375.158 163.313 376.379 157.503 377.194C144.531 378.836 131.357 377.679 118.87 373.8L117.803 373.468C116.014 372.905 114.24 372.29 112.48 371.621L111.413 371.212C109.709 370.556 108.041 369.85 106.41 369.096L105.343 368.611C103.639 367.818 101.971 366.981 100.34 366.099C99.7517 365.792 99.1702 365.46 98.5951 365.147C89.3124 359.961 80.8746 353.39 73.5726 345.661C73.3617 345.45 73.1636 345.233 72.9336 345.022C71.9176 343.922 70.9208 342.804 69.9559 341.66C69.5981 341.238 69.2402 340.816 68.8888 340.382C67.7429 338.984 66.6375 337.555 65.5725 336.093C65.4127 335.883 65.2594 335.665 65.106 335.454C60.7428 329.417 57.1254 322.874 54.3328 315.968C54.2433 315.757 54.1602 315.54 54.0836 315.329C53.2316 313.135 52.4542 310.905 51.7513 308.638C51.4637 307.692 51.189 306.721 50.9462 305.775C50.8631 305.494 50.7864 305.206 50.7161 304.925C47.1889 291.037 46.7864 276.6 46.7864 262.246C46.7864 260.572 46.7864 258.899 46.7864 257.229C46.8886 234.011 47.2464 210.396 50.6714 187.498C50.6714 187.338 50.7161 187.178 50.7417 187.025C51.888 179.316 53.4472 171.674 55.4127 164.132C57.4697 156.219 60.0985 148.466 63.2785 140.933C71.1572 122.399 82.6142 105.534 95.3363 89.9014C127.381 50.5652 169.407 17.5432 218.596 5.18307C271.6 -8.12927 330.508 4.62705 373.262 38.6716C386.297 49.0505 398.01 61.3403 412.649 69.297C425.429 76.2248 440.387 79.0943 454.074 73.6429C465.384 69.1373 472.745 66.9004 485.448 67.5843C511.746 69.0722 537.672 74.5034 562.356 83.6958C563.353 84.0601 564.35 84.4372 565.34 84.8142C629.692 109.439 685.009 158.361 713.764 221.229C714.526 222.891 715.265 224.565 715.981 226.252C733.125 266.304 739.323 313.246 720.409 352.282Z" fill="#00ADB5"/>
<path opacity="0.1" d="M76.8696 474.841C108.024 474.841 133.279 470.784 133.279 465.779C133.279 460.774 108.024 456.716 76.8696 456.716C45.7156 456.716 20.4602 460.774 20.4602 465.779C20.4602 470.784 45.7156 474.841 76.8696 474.841Z" fill="#00ADB5"/>
<path opacity="0.1" d="M582.919 524C638.159 524 682.939 519.651 682.939 514.286C682.939 508.921 638.159 504.572 582.919 504.572C527.679 504.572 482.899 508.921 482.899 514.286C482.899 519.651 527.679 524 582.919 524Z" fill="#00ADB5"/>
<path d="M673.476 68.8623H82.1926C77.7848 68.8623 74.2117 72.4361 74.2117 76.8446V404.924C74.2117 409.332 77.7848 412.906 82.1926 412.906H673.476C677.883 412.906 681.457 409.332 681.457 404.924V76.8446C681.457 72.4361 677.883 68.8623 673.476 68.8623Z" fill="url(#paint0_linear)"/>
<path d="M672.581 73.7002H83.1574C78.7497 73.7002 75.1765 77.274 75.1765 81.6825V403.78C75.1765 408.188 78.7497 411.762 83.1574 411.762H672.581C676.989 411.762 680.562 408.188 680.562 403.78V81.6825C680.562 77.274 676.989 73.7002 672.581 73.7002Z" fill="white"/>
<path d="M672.581 73.7002H83.1574C78.7497 73.7002 75.1765 77.274 75.1765 81.6825V403.78C75.1765 408.188 78.7497 411.762 83.1574 411.762H672.581C676.989 411.762 680.562 408.188 680.562 403.78V81.6825C680.562 77.274 676.989 73.7002 672.581 73.7002Z" fill="white"/>
<path opacity="0.04" d="M672.581 73.7002H83.1574C78.7497 73.7002 75.1765 77.274 75.1765 81.6825V403.78C75.1765 408.188 78.7497 411.762 83.1574 411.762H672.581C676.989 411.762 680.562 408.188 680.562 403.78V81.6825C680.562 77.274 676.989 73.7002 672.581 73.7002Z" fill="white"/>
<path d="M677.489 69.8213H78.25C77.4349 69.8213 76.6531 70.1452 76.0767 70.7217C75.5003 71.2982 75.1765 72.0801 75.1765 72.8953V85.8881H680.536V72.8953C680.537 72.0845 680.216 71.3064 679.645 70.7306C679.074 70.1549 678.299 69.828 677.489 69.8213Z" fill="#5A5773"/>
<path d="M87.2659 82.0084C89.5598 82.0084 91.4193 80.1486 91.4193 77.8543C91.4193 75.5601 89.5598 73.7002 87.2659 73.7002C84.9721 73.7002 83.1125 75.5601 83.1125 77.8543C83.1125 80.1486 84.9721 82.0084 87.2659 82.0084Z" fill="white"/>
<path d="M98.4481 82.0084C100.742 82.0084 102.601 80.1486 102.601 77.8543C102.601 75.5601 100.742 73.7002 98.4481 73.7002C96.1542 73.7002 94.2947 75.5601 94.2947 77.8543C94.2947 80.1486 96.1542 82.0084 98.4481 82.0084Z" fill="white"/>
<path d="M109.63 82.0084C111.924 82.0084 113.784 80.1486 113.784 77.8543C113.784 75.5601 111.924 73.7002 109.63 73.7002C107.337 73.7002 105.477 75.5601 105.477 77.8543C105.477 80.1486 107.337 82.0084 109.63 82.0084Z" fill="white"/>
<path opacity="0.2" d="M287.498 116.104H125.036V129.896H287.498V116.104Z" fill="#00ADB5"/>
<path opacity="0.1" d="M630.702 171.405H125.036V383.559H630.702V171.405Z" fill="#5A5773"/>
<path opacity="0.1" d="M421.109 185.241H412.451V168.42C412.451 149.439 397.32 133.66 378.342 133.373C373.766 133.324 369.225 134.183 364.982 135.898C360.739 137.613 356.877 140.151 353.619 143.365C350.361 146.58 347.772 150.407 346 154.627C344.227 158.848 343.308 163.377 343.294 167.954V185.241H334.655C330.837 185.253 327.179 186.775 324.479 189.476C321.779 192.176 320.257 195.834 320.246 199.653V268.816C320.257 272.634 321.779 276.293 324.479 278.993C327.179 281.693 330.837 283.216 334.655 283.227H421.109C424.926 283.216 428.584 281.693 431.283 278.993C433.981 276.293 435.502 272.634 435.512 268.816V199.653C435.502 195.835 433.981 192.176 431.283 189.476C428.584 186.776 424.926 185.253 421.109 185.241ZM382.93 230.202V254.973C382.938 256.285 382.448 257.55 381.558 258.514C380.668 259.478 379.445 260.067 378.137 260.162C377.455 260.194 376.772 260.088 376.132 259.848C375.492 259.609 374.907 259.242 374.412 258.77C373.917 258.298 373.524 257.731 373.255 257.102C372.986 256.474 372.847 255.797 372.847 255.114V230.189C370.509 229.049 368.627 227.15 367.507 224.802C366.387 222.454 366.096 219.796 366.681 217.262C367.266 214.727 368.693 212.466 370.728 210.846C372.764 209.227 375.288 208.346 377.888 208.346C380.489 208.346 383.013 209.227 385.048 210.846C387.084 212.466 388.51 214.727 389.095 217.262C389.68 219.796 389.389 222.454 388.269 224.802C387.15 227.15 385.267 229.049 382.93 230.189V230.202ZM402.381 185.241H353.377V167.954C353.377 161.457 355.957 155.226 360.55 150.632C365.144 146.038 371.373 143.457 377.869 143.457C384.365 143.457 390.595 146.038 395.188 150.632C399.781 155.226 402.361 161.457 402.361 167.954L402.381 185.241Z" fill="black"/>
<path d="M421.109 183.964H412.451V167.143C412.451 148.162 397.32 132.382 378.342 132.095C373.766 132.047 369.225 132.905 364.982 134.62C360.739 136.335 356.877 138.873 353.619 142.087C350.361 145.302 347.772 149.129 346 153.35C344.227 157.57 343.308 162.099 343.294 166.676V183.964H334.655C330.837 183.975 327.179 185.498 324.479 188.198C321.779 190.898 320.257 194.557 320.246 198.375V267.538C320.257 271.357 321.779 275.015 324.479 277.715C327.179 280.416 330.837 281.938 334.655 281.95H421.109C424.926 281.938 428.584 280.415 431.283 277.715C433.981 275.015 435.502 271.356 435.512 267.538V198.375C435.502 194.557 433.981 190.898 431.283 188.198C428.584 185.498 424.926 183.975 421.109 183.964ZM382.93 228.924V253.695C382.938 255.007 382.448 256.273 381.558 257.236C380.668 258.2 379.445 258.789 378.137 258.885C377.455 258.917 376.772 258.81 376.132 258.57C375.492 258.331 374.907 257.964 374.412 257.492C373.917 257.021 373.524 256.453 373.255 255.825C372.986 255.196 372.847 254.52 372.847 253.836V228.911C370.509 227.771 368.627 225.872 367.507 223.524C366.387 221.176 366.096 218.518 366.681 215.984C367.266 213.449 368.693 211.188 370.728 209.569C372.764 207.949 375.288 207.068 377.888 207.068C380.489 207.068 383.013 207.949 385.048 209.569C387.084 211.188 388.51 213.449 389.095 215.984C389.68 218.518 389.389 221.176 388.269 223.524C387.15 225.872 385.267 227.771 382.93 228.911V228.924ZM402.381 183.964H353.377V166.676C353.377 160.179 355.957 153.948 360.55 149.354C365.144 144.76 371.373 142.18 377.869 142.18C384.365 142.18 390.595 144.76 395.188 149.354C399.781 153.948 402.361 160.179 402.361 166.676L402.381 183.964Z" fill="#00ADB5"/>
<path opacity="0.1" d="M630.702 150.986H579.52V163.072H630.702V150.986Z" fill="#5A5773"/>
<path d="M648.121 517.213C647.784 515.519 647.207 513.881 646.408 512.349L638.74 500.897H638.785C638.785 500.897 637.577 495.145 638.785 492.32C639.993 489.495 634.478 482.549 634.478 482.549C634.478 482.549 633.807 480.804 635.558 478.656C637.309 476.509 634.478 470.22 634.478 470.22C634.478 470.22 633.136 457.087 633.002 455.08C632.868 453.073 631.788 441.953 631.788 441.953L629.232 418.377L624.683 355.893L624.6 354.723C625.162 354.448 625.462 354.276 625.462 354.276L624.555 319.726L625.341 319.017C632.204 312.805 648.031 298.425 647.871 298.112C647.712 297.799 645.955 274.101 645.75 268.171C645.574 263.956 644.653 259.806 643.028 255.913C642.632 255.127 641.488 249.944 641.015 247.752C640.887 247.151 640.804 246.774 640.804 246.774C640.804 246.774 636.165 237.929 636.568 233.909C636.97 229.889 637.776 226.879 627.884 225.473C627.884 225.473 619.577 224.233 614.632 220.852C611.707 218.827 608.51 217.226 605.136 216.097C605.136 216.097 602.363 210.984 600.433 212.716C599.616 210.892 599.005 208.982 598.612 207.022L598.555 206.664C602.218 204.109 604.854 200.336 605.993 196.017C606.056 195.774 606.108 195.525 606.165 195.282C606.357 195.347 606.557 195.383 606.759 195.391C608.44 195.391 609.475 193.518 611.047 192.924C611.686 192.674 612.472 192.636 612.964 192.131C613.126 191.937 613.247 191.711 613.319 191.468C613.392 191.225 613.414 190.97 613.386 190.719C613.401 190.544 613.401 190.369 613.386 190.195C613.389 190.133 613.389 190.071 613.386 190.009V190.073C612.957 187.747 611.155 185.683 611.354 183.318C611.545 181.094 613.501 179.138 613.341 176.972C613.339 176.801 613.324 176.63 613.296 176.461V176.537C613.058 175.691 612.62 174.915 612.018 174.275C611.33 173.338 610.427 172.579 609.386 172.064C608.497 171.674 607.469 171.584 606.638 171.118C604.197 169.788 604.203 166.325 602.753 163.96C602.131 162.973 601.249 162.176 600.204 161.659C599.159 161.141 597.991 160.922 596.829 161.026C595.015 161.205 593.373 162.17 591.577 162.484C589.123 162.918 586.625 162.119 584.299 161.205C581.973 160.291 579.615 159.288 577.117 159.288C574.618 159.288 571.916 160.566 571.162 162.925C570.759 164.203 570.957 165.577 570.65 166.874C570.101 169.162 568.094 170.798 566.018 171.936C564.74 172.645 563.219 173.457 562.823 174.799C562.823 174.761 562.823 174.729 562.823 174.697C562.794 174.804 562.773 174.913 562.759 175.023C562.746 175.165 562.746 175.308 562.759 175.451C562.759 176.371 563.245 177.247 563.57 178.122C564.178 179.788 564.164 181.617 563.532 183.273C563.059 184.488 562.254 185.555 561.794 186.763C561.577 187.325 561.435 187.914 561.372 188.514V188.412C561.356 188.684 561.356 188.957 561.372 189.23C561.364 190.163 561.584 191.084 562.011 191.914C562.304 192.487 562.709 192.995 563.202 193.409C563.695 193.823 564.265 194.134 564.88 194.323C566.158 194.617 566.957 193.365 568.305 193.684C568.547 193.742 568.784 193.817 569.015 193.908C569.059 194.195 569.104 194.483 569.155 194.764C569.97 199.065 572.262 202.947 575.634 205.737C575.634 205.891 575.686 206.044 575.705 206.204C576.113 208.752 576.29 211.332 576.235 213.911C576.235 213.911 574.222 210.965 571.462 216.653C571.462 216.653 564.261 220.807 561.775 221.28C559.289 221.753 550.465 224.827 550.465 224.827C549.134 225.79 547.532 226.307 545.89 226.304C543.136 226.304 540.848 232.33 541.18 235.609C541.513 238.887 540.982 241.303 538.42 241.437C535.858 241.572 537.257 246.767 537.276 246.857L537.04 247.975C536.541 250.263 535.455 255.171 535.072 255.938C533.447 259.832 532.523 263.981 532.343 268.196C532.145 274.127 530.426 297.735 530.228 298.138C530.094 298.4 540.938 308.312 548.561 315.24L549.666 316.237L546.158 349.01C546.26 350.272 546.636 351.498 547.258 352.601C547.88 353.705 548.735 354.66 549.762 355.401C549.762 355.784 549.762 356.174 549.724 356.577C549.57 360.411 549.264 365.051 548.65 366.265C547.577 368.413 547.845 379.929 547.845 379.929C547.845 379.929 546.765 403.371 545.423 405.921C544.081 408.471 543.807 413.82 544.209 414.868C544.612 415.917 542.861 444.069 542.861 444.069L541.519 456.665C541.519 456.665 541.922 468.718 540.708 468.987C539.494 469.255 538.823 477.564 538.823 477.564C538.823 477.564 534.522 483.456 536.401 485.597C538.279 487.738 536.126 488.684 535.928 489.214C535.73 489.745 531.826 491.771 534.65 499.261C534.676 499.335 534.706 499.407 534.74 499.478C532.094 503.153 523.711 515.008 524.222 516.81C524.599 517.957 525.399 518.917 526.458 519.495C528.433 520.677 531.819 521.227 537.206 519.495C546.152 516.612 545.513 514.535 545.513 514.535C545.559 513.564 545.975 512.648 546.677 511.975C547.378 511.302 548.311 510.923 549.283 510.918C552.983 510.649 555.743 507.237 555.743 507.237L555.308 505.62L554.714 503.383C554.784 502.744 555.238 501.625 557.27 501.005C560.369 500.066 559.558 494.174 559.558 494.174C559.558 494.174 559.289 488.013 560.631 487.207C561.973 486.402 561.443 476.221 561.443 476.221C561.443 476.221 562.925 468.853 565.072 463.893C567.219 458.934 569.788 429.472 569.788 429.472C569.788 429.472 571.532 415.003 573.149 410.848C574.765 406.694 576.248 395.044 576.248 395.044C576.248 395.044 586.21 375.749 586.337 371.461C586.337 371.461 587.615 367.441 588.893 371.864C590.171 376.286 593.762 386.87 593.762 386.87L597.258 399.862L601.43 419.285L604.127 435.633C604.127 435.633 603.718 441.793 604.766 443.941C605.814 446.088 607.322 451.035 606.516 451.974C605.711 452.914 608.127 457.336 608.804 458.269C609.481 459.202 608.804 479.033 608.804 479.033C608.804 479.033 611.897 495.912 616.338 498.845C616.647 499.049 616.977 499.22 617.322 499.357C617.258 501.184 617.194 503.632 617.277 504.91C617.267 505.196 617.315 505.481 617.418 505.748C617.82 506.284 622.395 509.902 623.341 509.902C624.287 509.902 627.641 512.247 627.782 513.385C627.922 514.522 637.616 519.341 638.99 519.482C640.363 519.622 647.022 520.817 647.935 518.945C648.161 518.397 648.226 517.796 648.121 517.213ZM624.306 275.814L624.996 276.409C624.996 276.409 625.705 281.937 626.21 283.592C626.715 285.247 626.108 288.468 626.108 288.468C626.154 289.67 626.394 290.857 626.817 291.983C627.418 293.191 625.603 295.818 625.603 295.818H623.986L623.481 275.124L624.306 275.814ZM576.235 214.027V213.905C576.222 213.943 576.216 213.988 576.216 214.027H576.235ZM551.411 293.69C551.162 293.154 551.125 292.545 551.308 291.983C551.452 291.68 551.565 291.363 551.647 291.037C551.846 290.198 551.97 289.342 552.018 288.481C552.019 288.47 552.019 288.46 552.018 288.449C551.96 288.142 551.443 285.177 551.922 283.605C552.401 282.033 553.129 276.421 553.129 276.421L553.59 276.031L554.657 275.105C554.657 275.105 554.657 274.76 554.733 274.191C554.957 279.048 555.136 284.416 554.848 284.685C554.312 285.215 552.356 290.437 552.829 290.641C552.982 290.711 552.772 292.801 552.414 295.613C552.012 295.01 551.676 294.365 551.411 293.69Z" fill="url(#paint1_linear)"/>
<path d="M602.913 219.133V227.083L586.606 235.283C586.606 235.283 570.414 225.485 574.408 221.587C576.963 219.12 576.471 212.345 575.781 207.686C575.379 204.977 574.912 202.989 574.912 202.989C574.912 202.989 603.999 194.681 599.603 200.989C598.133 203.098 598.018 205.827 598.51 208.53C599.507 213.892 602.913 219.133 602.913 219.133Z" fill="#C37098"/>
<path d="M558.241 296.879L556.139 322.775C556.139 322.775 552.989 319.918 548.912 316.199C541.353 309.303 530.618 299.441 530.746 299.179C530.944 298.777 532.663 275.284 532.848 269.378C533.023 265.187 533.936 261.059 535.545 257.185C535.928 256.418 537.008 251.535 537.461 249.253C537.615 248.544 537.711 248.084 537.711 248.084L541.238 246.665C541.238 246.665 555.934 263.064 555.934 263.365C555.934 263.665 554.931 276.261 554.931 276.261L553.89 277.169L553.436 277.559C553.436 277.559 552.733 283.061 552.235 284.71C551.736 286.359 552.273 289.222 552.331 289.529C552.284 290.39 552.162 291.246 551.966 292.085C551.883 292.409 551.77 292.723 551.628 293.025C551.448 293.584 551.484 294.191 551.73 294.725C552.014 295.466 552.383 296.171 552.829 296.828L558.241 296.879Z" fill="#3F3D56"/>
<path d="M647.309 299.179C647.463 299.492 631.788 313.802 624.996 319.982L621.916 322.775L619.833 296.879H625.232C625.232 296.879 627.034 294.277 626.434 293.076C626.015 291.956 625.78 290.775 625.737 289.58C625.737 289.58 626.331 286.385 625.833 284.729C625.335 283.074 624.632 277.578 624.632 277.578L623.948 276.99L623.137 276.281C623.137 276.281 622.133 263.684 622.133 263.384C622.133 263.083 636.83 246.684 636.83 246.684L640.332 248.084C640.332 248.084 640.408 248.461 640.536 249.062C641.009 251.241 642.14 256.398 642.53 257.184C644.139 261.059 645.052 265.187 645.226 269.378C645.392 275.284 647.105 298.777 647.309 299.179Z" fill="#3F3D56"/>
<path d="M647.373 518.989C646.434 520.856 639.839 519.629 638.478 519.526C637.117 519.424 627.507 514.586 627.373 513.455C627.239 512.324 623.909 509.991 622.977 509.991C622.044 509.991 617.513 506.387 617.111 505.856C617.009 505.591 616.963 505.309 616.977 505.025C616.836 502.833 617.111 497.19 617.111 497.19L636.44 498.257L645.833 512.388C646.625 513.912 647.197 515.541 647.533 517.226C647.647 517.817 647.591 518.428 647.373 518.989Z" fill="#3F3D56"/>
<path opacity="0.1" d="M647.373 518.989C646.434 520.856 639.839 519.629 638.478 519.526C637.117 519.424 627.507 514.586 627.373 513.455C627.239 512.324 623.909 509.991 622.977 509.991C622.044 509.991 617.513 506.387 617.111 505.856C617.009 505.591 616.963 505.309 616.977 505.025C616.836 502.833 617.111 497.19 617.111 497.19L636.44 498.257L645.833 512.388C646.625 513.912 647.197 515.541 647.533 517.226C647.647 517.817 647.591 518.428 647.373 518.989Z" fill="black"/>
<path opacity="0.1" d="M647.373 518.99C646.434 520.856 639.839 519.629 638.478 519.526C637.117 519.424 627.507 514.586 627.373 513.455C627.238 512.324 623.909 509.991 622.976 509.991C622.044 509.991 617.513 506.387 617.111 505.856C617.009 505.592 616.963 505.309 616.976 505.025L623.238 508.988C623.238 508.988 627.239 511.544 628.306 513.059C629.373 514.573 637.782 517.724 638.478 517.788C638.996 517.839 644.517 516.778 647.533 517.226C647.647 517.817 647.591 518.428 647.373 518.99Z" fill="black"/>
<path d="M555.999 507.326C555.999 507.326 553.264 510.726 549.609 510.988C548.644 510.995 547.719 511.373 547.025 512.042C546.33 512.712 545.92 513.622 545.877 514.586C545.877 514.586 546.516 516.657 537.679 519.526C532.343 521.246 528.989 520.702 527.033 519.526C525.984 518.947 525.192 517.993 524.816 516.855C524.215 514.727 536.011 498.526 536.011 498.526L546.746 497.887L554.414 501.351L555.59 505.741L555.999 507.326Z" fill="#3F3D56"/>
<path opacity="0.1" d="M555.999 507.326C555.999 507.326 553.264 510.726 549.609 510.988C548.644 510.995 547.719 511.373 547.025 512.042C546.33 512.712 545.92 513.622 545.877 514.586C545.877 514.586 546.516 516.657 537.679 519.526C532.343 521.246 528.989 520.702 527.033 519.526C525.984 518.947 525.192 517.993 524.816 516.855C524.215 514.727 536.011 498.526 536.011 498.526L546.746 497.887L554.414 501.351L555.59 505.741L555.999 507.326Z" fill="black"/>
<path opacity="0.1" d="M555.998 507.326C555.998 507.326 553.264 510.726 549.609 510.988C548.644 510.995 547.719 511.372 547.025 512.042C546.33 512.712 545.92 513.622 545.877 514.586C545.877 514.586 546.516 516.657 537.679 519.526C532.343 521.245 528.989 520.702 527.033 519.526C532.062 519.002 543.174 515.826 544.286 514.727C545.621 513.391 547.289 509.722 548.42 509.659C549.206 509.607 553.2 507.204 555.596 505.715L555.998 507.326Z" fill="black"/>
<path d="M638.306 492.461C637.105 495.26 638.306 500.993 638.306 500.993C638.306 500.993 620.414 501.926 616.044 498.992C611.673 496.059 608.58 479.257 608.58 479.257C608.58 479.257 609.219 459.528 608.58 458.595C607.941 457.662 605.513 453.265 606.312 452.332C607.111 451.399 605.673 446.465 604.58 444.33C603.488 442.196 603.941 436.067 603.941 436.067L601.27 419.796L597.143 400.469L593.635 387.534C593.635 387.534 590.037 377.002 588.817 372.605C587.596 368.208 586.305 372.202 586.305 372.202C586.178 376.471 576.312 395.67 576.312 395.67C576.312 395.67 574.842 407.269 573.245 411.398C571.647 415.526 569.909 429.932 569.909 429.932C569.909 429.932 567.353 459.26 565.245 464.194C563.136 469.127 561.685 476.458 561.685 476.458C561.685 476.458 562.222 486.594 560.887 487.393C559.551 488.192 559.768 494.327 559.768 494.327C559.768 494.327 560.567 500.187 557.5 501.127C554.433 502.066 554.944 504.06 554.944 504.06C554.944 504.06 537.883 506.859 535.085 499.388C532.286 491.917 536.152 489.93 536.362 489.393C536.573 488.856 538.701 487.929 536.835 485.789C534.97 483.648 539.232 477.793 539.232 477.793C539.232 477.793 539.902 469.53 541.097 469.262C542.292 468.993 541.902 456.997 541.902 456.997L543.232 444.465C543.232 444.465 544.97 416.466 544.567 415.399C544.165 414.331 544.433 409.008 545.768 406.451C547.104 403.895 548.165 380.581 548.165 380.581C548.165 380.581 547.896 369.122 548.963 366.987C549.602 365.779 549.871 361.133 550.024 357.343C550.139 354.448 550.165 352.052 550.165 352.052L565.091 346.453L584.261 340.324L600.389 348.057L623.986 352.588L624.28 356.659L628.785 418.85L631.341 442.311C631.341 442.311 632.408 453.374 632.542 455.374C632.676 457.374 634.006 470.444 634.006 470.444C634.006 470.444 636.804 476.707 635.073 478.842C633.341 480.976 634.006 482.676 634.006 482.676C634.006 482.676 639.507 489.661 638.306 492.461Z" fill="#3F3D56"/>
<path opacity="0.1" d="M599.616 200.989C598.146 203.098 598.031 205.827 598.523 208.53C595.165 210.899 591.122 212.1 587.015 211.946C582.908 211.792 578.966 210.294 575.794 207.68C575.392 204.97 574.925 202.983 574.925 202.983C574.925 202.983 604.012 194.687 599.616 200.989Z" fill="black"/>
<path d="M606.414 192.834C606.414 196.538 605.316 200.158 603.259 203.237C601.202 206.317 598.278 208.717 594.857 210.134C591.436 211.551 587.671 211.922 584.039 211.2C580.408 210.477 577.072 208.694 574.453 206.075C571.835 203.456 570.052 200.12 569.329 196.487C568.607 192.855 568.978 189.09 570.395 185.668C571.812 182.247 574.212 179.322 577.29 177.264C580.369 175.207 583.989 174.109 587.692 174.109C590.154 174.097 592.594 174.573 594.871 175.51C597.147 176.447 599.216 177.826 600.957 179.567C602.698 181.308 604.076 183.377 605.013 185.654C605.95 187.931 606.426 190.372 606.414 192.834Z" fill="#C37098"/>
<path opacity="0.1" d="M610.312 223.952L604.178 333.205L570.855 326.207L564.254 282.41L570.791 223.613L575.711 224.245L584.389 225.351L592.983 225.882L602.299 224.846L610.312 223.952Z" fill="black"/>
<path d="M610.312 224.75L604.178 334.004L570.855 327.005L564.254 283.208L570.791 224.418L575.711 225.044L584.389 226.15L592.983 226.68L602.299 225.645L610.312 224.75Z" fill="#00ADB5"/>
<path d="M582.919 227.684L594.919 228.086L591.545 232.809C591.545 232.809 591.782 242.351 593.386 245.086C594.989 247.821 594.517 290.078 594.517 290.078L591.322 296.143L585.858 289.343L585.929 233.55L582.919 227.684Z" fill="#3F3D56"/>
<path opacity="0.1" d="M582.919 227.684L594.919 228.086L591.545 232.809C591.545 232.809 591.782 242.351 593.386 245.086C594.989 247.821 594.517 290.078 594.517 290.078L591.322 296.143L585.858 289.343L585.929 233.55L582.919 227.684Z" fill="black"/>
<path opacity="0.1" d="M601.711 215.285L590.516 227.684L596.913 234.349L607.513 224.015L601.711 215.285Z" fill="black"/>
<path d="M601.711 214.486L590.516 226.885L596.913 233.551L607.513 223.216L601.711 214.486Z" fill="#00ADB5"/>
<path opacity="0.1" d="M585.788 227.083L574.452 215.752L573.385 221.683L578.587 234.682L585.788 227.083Z" fill="black"/>
<path d="M586.184 226.284L574.855 214.953L573.788 220.884L578.989 233.883L586.184 226.284Z" fill="#00ADB5"/>
<path opacity="0.1" d="M624.338 356.679C618.897 359.271 613.069 360.957 607.085 361.67C596.088 363.069 588.893 349.073 588.893 349.073L584.695 354.538C583.36 360.341 563.034 361.804 554.772 359.606C553.057 359.182 551.445 358.419 550.03 357.362C550.145 354.467 550.171 352.071 550.171 352.071L565.098 346.472L584.267 340.343L600.395 348.076L623.993 352.607L624.338 356.679Z" fill="black"/>
<path opacity="0.1" d="M610.312 224.757L604.184 334.003L570.855 327.005L564.241 283.215L570.772 224.418L575.692 225.057C575.566 227.199 575.325 229.332 574.97 231.448C574.171 235.187 579.104 261.716 579.104 261.716C579.104 261.716 588.478 291.465 592.695 287.177C596.913 282.889 602.919 260.246 602.919 260.246C606.989 251.848 602.989 228.291 602.689 227.818C602.48 227.121 602.351 226.403 602.306 225.677L610.312 224.757Z" fill="black"/>
<path opacity="0.1" d="M624.708 309.296L624.99 320.001L621.91 322.794L619.833 296.878H624.434L624.708 309.296Z" fill="black"/>
<path opacity="0.1" d="M552.337 289.548C552.29 290.409 552.168 291.265 551.973 292.105C551.973 291.868 551.973 291.734 551.922 291.715C551.73 291.664 551.96 290.686 552.337 289.548Z" fill="black"/>
<path opacity="0.1" d="M558.241 296.879L556.139 322.775C556.139 322.775 552.989 319.918 548.912 316.198L549.398 311.61C549.398 311.61 551.117 300.336 551.743 294.776C552.027 295.517 552.396 296.222 552.842 296.879H558.241Z" fill="black"/>
<path d="M576.318 215.349C576.318 215.349 574.325 212.416 571.59 218.078C571.59 218.078 564.459 222.213 562.005 222.68C559.551 223.146 550.823 226.214 550.823 226.214C549.505 227.167 547.919 227.679 546.292 227.677C543.558 227.677 541.289 233.678 541.621 236.944C541.954 240.21 541.423 242.613 538.893 242.747C536.363 242.881 537.756 248.141 537.756 248.141L554.618 267.474C554.618 267.474 555.685 285.272 555.155 285.809C554.625 286.346 552.689 291.561 553.155 291.74C553.622 291.919 550.599 311.603 550.599 311.603L546.535 349.802C546.535 349.802 546.535 356.193 554.804 358.398C563.072 360.603 583.411 359.145 584.721 353.342L588.919 347.872C588.919 347.872 596.114 361.874 607.111 360.475C618.108 359.075 625.111 355.074 625.111 355.074L623.91 309.296L623.111 276.3L640.28 248.084C640.28 248.084 635.68 239.283 636.082 235.302C636.485 231.32 637.277 228.304 627.482 226.904C627.482 226.904 619.22 225.67 614.351 222.302C611.457 220.293 608.295 218.701 604.957 217.573C604.957 217.573 602.21 212.46 600.299 214.212C600.299 214.212 602.216 221.44 602.056 222.52C601.897 223.6 602.357 228.483 602.657 228.987C602.957 229.492 606.957 253.017 602.887 261.415C602.887 261.415 596.913 284.058 592.663 288.347C588.414 292.635 579.072 262.885 579.072 262.885C579.072 262.885 574.139 236.35 574.938 232.617C575.737 228.885 576.318 215.349 576.318 215.349Z" fill="#3F3D56"/>
<path d="M590.58 302.745C592.2 302.745 593.513 301.432 593.513 299.812C593.513 298.192 592.2 296.878 590.58 296.878C588.96 296.878 587.647 298.192 587.647 299.812C587.647 301.432 588.96 302.745 590.58 302.745Z" fill="#3F3D56"/>
<path d="M590.58 316.575C592.2 316.575 593.513 315.262 593.513 313.642C593.513 312.022 592.2 310.708 590.58 310.708C588.96 310.708 587.647 312.022 587.647 313.642C587.647 315.262 588.96 316.575 590.58 316.575Z" fill="#3F3D56"/>
<path opacity="0.1" d="M590.58 302.745C592.2 302.745 593.513 301.432 593.513 299.812C593.513 298.192 592.2 296.878 590.58 296.878C588.96 296.878 587.647 298.192 587.647 299.812C587.647 301.432 588.96 302.745 590.58 302.745Z" fill="black"/>
<path opacity="0.1" d="M590.58 316.575C592.2 316.575 593.513 315.262 593.513 313.642C593.513 312.022 592.2 310.708 590.58 310.708C588.96 310.708 587.647 312.022 587.647 313.642C587.647 315.262 588.96 316.575 590.58 316.575Z" fill="black"/>
<path opacity="0.1" d="M616.938 488.46C616.938 488.46 628.977 489.393 630.172 490.326C631.367 491.259 616.938 488.46 616.938 488.46Z" fill="black" stroke="#00ADB5" stroke-miterlimit="10"/>
<path opacity="0.1" d="M545.264 478.995C545.264 478.995 547.82 482.191 546.733 483.66C545.647 485.13 545.264 478.995 545.264 478.995Z" fill="black" stroke="#00ADB5" stroke-miterlimit="10"/>
<path opacity="0.1" d="M548.331 490.518C548.331 490.518 552.995 487.45 554.861 489.489C556.727 491.528 548.331 490.518 548.331 490.518Z" fill="black" stroke="#00ADB5" stroke-miterlimit="10"/>
<path opacity="0.1" d="M606.414 192.834C606.418 194.432 606.216 196.024 605.814 197.57C605.42 197.39 605.09 197.094 604.868 196.722C604.647 196.35 604.544 195.919 604.574 195.486C604.657 194.726 605.162 194.029 605.053 193.275C604.893 192.112 603.488 191.639 602.747 190.719C601.833 189.607 602.031 187.99 602.108 186.552C602.184 185.114 601.82 183.356 600.472 182.864C600.069 182.717 599.628 182.704 599.239 182.538C598.178 182.091 597.852 180.774 597.143 179.867C595.724 178.039 592.906 178.077 590.753 178.947C589.816 179.396 588.856 179.797 587.877 180.148C587.388 180.321 586.867 180.39 586.349 180.352C585.831 180.313 585.327 180.168 584.868 179.924C584.446 179.656 584.107 179.285 583.673 179.017C582.229 178.148 580.337 179.017 579.085 180.135C577.833 181.254 576.829 182.756 575.251 183.439C574.542 183.759 573.666 183.951 573.334 184.641C573.17 185.017 573.099 185.427 573.13 185.836C573.13 188.322 573.424 190.847 572.906 193.281C572.574 194.847 571.475 196.624 569.884 196.432C569.685 196.403 569.491 196.354 569.302 196.285C568.823 193.726 568.883 191.094 569.479 188.559C570.074 186.024 571.191 183.641 572.76 181.562C574.328 179.483 576.312 177.755 578.586 176.486C580.86 175.218 583.374 174.438 585.966 174.196C588.558 173.954 591.173 174.256 593.642 175.082C596.111 175.907 598.381 177.239 600.306 178.992C602.232 180.745 603.771 182.88 604.825 185.261C605.879 187.642 606.424 190.217 606.427 192.821L606.414 192.834Z" fill="black"/>
<path d="M568.465 195.224C568.944 195.333 569.398 195.582 569.89 195.646C571.481 195.838 572.58 194.061 572.912 192.495C573.43 190.06 573.162 187.536 573.142 185.05C573.107 184.641 573.175 184.23 573.341 183.855C573.705 183.165 574.58 182.973 575.257 182.653C576.804 181.963 577.813 180.493 579.091 179.349C580.369 178.205 582.229 177.362 583.673 178.231C584.101 178.486 584.446 178.87 584.868 179.138C585.329 179.378 585.834 179.522 586.353 179.56C586.871 179.599 587.392 179.531 587.884 179.362C588.874 179.068 589.801 178.55 590.753 178.16C592.887 177.291 595.711 177.259 597.143 179.074C597.852 179.988 598.178 181.298 599.239 181.746C599.628 181.912 600.069 181.931 600.472 182.078C601.82 182.583 602.165 184.328 602.108 185.766C602.05 187.204 601.858 188.821 602.747 189.933C603.488 190.84 604.893 191.313 605.053 192.489C605.155 193.243 604.657 193.946 604.574 194.7C604.555 194.98 604.592 195.262 604.682 195.528C604.773 195.794 604.915 196.039 605.101 196.249C605.287 196.46 605.513 196.631 605.766 196.754C606.019 196.876 606.294 196.947 606.574 196.963C608.235 196.963 609.264 195.103 610.817 194.508C611.456 194.259 612.229 194.221 612.734 193.716C612.921 193.473 613.054 193.193 613.123 192.894C613.191 192.595 613.193 192.284 613.13 191.984C612.817 189.536 610.855 187.408 611.066 184.954C611.264 182.602 613.443 180.551 612.983 178.237C612.749 177.384 612.31 176.601 611.705 175.956C611.02 175.027 610.127 174.272 609.098 173.751C608.21 173.367 607.181 173.278 606.37 172.811C603.954 171.488 603.961 168.037 602.536 165.685C601.924 164.713 601.057 163.928 600.029 163.417C599.001 162.905 597.852 162.686 596.708 162.784C594.913 162.963 593.283 163.915 591.507 164.235C589.072 164.669 586.606 163.87 584.299 162.956C581.992 162.042 579.66 161.039 577.187 161.039C574.714 161.039 572.037 162.317 571.283 164.656C570.887 165.935 571.085 167.302 570.778 168.587C570.241 170.868 568.222 172.492 566.19 173.623C564.791 174.403 563.11 175.297 562.944 176.889C562.836 177.898 563.392 178.806 563.743 179.784C564.341 181.438 564.327 183.251 563.705 184.896C563.238 186.104 562.459 187.165 561.986 188.367C561.65 189.182 561.491 190.06 561.52 190.941C561.549 191.822 561.764 192.688 562.152 193.48C562.45 194.057 562.862 194.567 563.365 194.979C563.867 195.392 564.448 195.697 565.072 195.876C566.331 196.176 567.123 194.93 568.465 195.224Z" fill="#3F3D56"/>
<g opacity="0.1">
<path opacity="0.1" d="M572.912 191.102C572.58 192.668 571.475 194.445 569.884 194.253C569.392 194.189 568.944 193.94 568.459 193.831C567.123 193.537 566.331 194.79 565.072 194.47C564.447 194.291 563.865 193.986 563.362 193.574C562.858 193.162 562.445 192.651 562.145 192.074C561.811 191.423 561.609 190.713 561.551 189.984C561.424 191.116 561.631 192.26 562.145 193.275C562.445 193.853 562.858 194.363 563.362 194.775C563.865 195.187 564.447 195.493 565.072 195.672C566.35 195.966 567.123 194.713 568.459 195.033C568.926 195.196 569.402 195.334 569.884 195.448C571.475 195.646 572.58 193.87 572.912 192.304C573.174 190.92 573.277 189.512 573.219 188.105C573.213 189.112 573.11 190.115 572.912 191.102Z" fill="black"/>
<path opacity="0.1" d="M564.158 181.477C564.24 180.43 564.096 179.378 563.737 178.391C563.447 177.734 563.202 177.06 563.002 176.371C562.974 176.478 562.953 176.587 562.938 176.697C562.829 177.7 563.391 178.614 563.737 179.592C563.96 180.199 564.101 180.833 564.158 181.477Z" fill="black"/>
<path opacity="0.1" d="M612.977 178.109C612.676 179.924 611.207 181.631 611.06 183.542C611.024 183.869 611.024 184.199 611.06 184.526C611.379 182.295 613.354 180.321 612.977 178.109Z" fill="black"/>
<path opacity="0.1" d="M613.085 191.594C613.031 191.861 612.905 192.109 612.721 192.31C612.248 192.815 611.443 192.853 610.804 193.103C609.251 193.697 608.248 195.576 606.561 195.557C606.129 195.532 605.715 195.377 605.373 195.113C605.031 194.848 604.776 194.486 604.644 194.074C604.605 194.212 604.575 194.353 604.555 194.496C604.537 194.776 604.574 195.056 604.665 195.321C604.756 195.587 604.898 195.831 605.084 196.041C605.27 196.251 605.496 196.421 605.748 196.543C606.001 196.665 606.275 196.736 606.555 196.752C608.222 196.752 609.245 194.892 610.798 194.304C611.437 194.055 612.216 194.016 612.715 193.512C612.902 193.269 613.035 192.988 613.103 192.689C613.172 192.39 613.174 192.08 613.111 191.78C613.104 191.703 613.092 191.652 613.085 191.594Z" fill="black"/>
<path opacity="0.1" d="M605.072 191.064C604.913 189.901 603.507 189.428 602.766 188.507C602.311 187.903 602.065 187.167 602.063 186.411C602.012 187.6 602.031 188.814 602.766 189.709C603.5 190.604 604.619 190.987 604.976 191.907C605.067 191.636 605.1 191.349 605.072 191.064Z" fill="black"/>
<path opacity="0.1" d="M602.101 184.373C602.152 182.935 601.807 181.177 600.459 180.685C600.063 180.538 599.622 180.519 599.232 180.359C598.171 179.912 597.839 178.595 597.136 177.688C595.711 175.866 592.893 175.898 590.746 176.767C589.788 177.157 588.874 177.675 587.877 177.969C587.388 178.142 586.867 178.211 586.349 178.173C585.831 178.134 585.327 177.988 584.868 177.745C584.446 177.477 584.101 177.106 583.673 176.838C582.222 175.968 580.331 176.838 579.085 177.956C577.839 179.074 576.829 180.57 575.251 181.26C574.535 181.58 573.666 181.771 573.296 182.462C573.133 182.838 573.065 183.248 573.098 183.657C573.098 183.906 573.098 184.155 573.098 184.405C573.106 184.147 573.169 183.894 573.283 183.663C573.654 182.973 574.523 182.781 575.238 182.462C576.785 181.771 577.794 180.302 579.072 179.158C580.35 178.014 582.21 177.17 583.66 178.039C584.088 178.295 584.433 178.678 584.855 178.94C585.313 179.185 585.818 179.331 586.336 179.37C586.855 179.409 587.375 179.338 587.865 179.164C588.841 178.816 589.799 178.417 590.734 177.969C592.874 177.1 595.692 177.061 597.124 178.883C597.826 179.79 598.159 181.107 599.219 181.554C599.609 181.72 600.05 181.74 600.446 181.886C601.539 182.296 601.973 183.523 602.069 184.737L602.101 184.373Z" fill="black"/>
</g>
<g opacity="0.1">
<path opacity="0.1" d="M570.631 191.063C570.668 190.003 571.048 188.983 571.714 188.156C572.38 187.33 573.296 186.742 574.325 186.481C577.174 185.785 580.163 185.92 582.938 186.871C589.002 188.878 582.171 196.1 582.171 196.1C582.171 196.1 577.628 200.573 573.392 197.448C572.14 196.502 571.264 195.144 570.919 193.613C570.711 192.78 570.615 191.922 570.631 191.063Z" fill="black"/>
<path opacity="0.1" d="M603.967 191.064C603.93 190.002 603.549 188.981 602.882 188.155C602.215 187.328 601.297 186.741 600.267 186.481C597.42 185.786 594.433 185.921 591.66 186.871C585.596 188.878 592.427 196.1 592.427 196.1C592.427 196.1 596.964 200.573 601.206 197.448C602.458 196.502 603.334 195.144 603.679 193.614C603.887 192.78 603.983 191.922 603.967 191.064Z" fill="black"/>
<path opacity="0.1" d="M581.794 186.283V186.583H592.868V186.226L581.794 186.283Z" fill="black"/>
<path opacity="0.1" d="M585.328 189.485H585.679V188.469C585.679 188.469 586.804 187.593 588.67 188.469V189.376H589.309V188.782H588.996C588.996 188.782 589.123 187.549 587.04 187.747C587.04 187.747 585.366 187.587 585.405 188.648H585.021L585.328 189.485Z" fill="black"/>
</g>
<path d="M570.631 190.648C570.668 189.588 571.048 188.568 571.714 187.741C572.38 186.915 573.296 186.327 574.325 186.066C577.174 185.374 580.162 185.509 582.938 186.456C589.002 188.469 582.171 195.685 582.171 195.685C582.171 195.685 577.628 200.158 573.392 197.033C572.138 196.089 571.261 194.73 570.919 193.198C570.711 192.365 570.614 191.507 570.631 190.648Z" fill="#00ADB5"/>
<path d="M603.967 190.648C603.93 189.587 603.549 188.566 602.882 187.739C602.215 186.913 601.297 186.326 600.267 186.066C597.42 185.374 594.434 185.509 591.66 186.456C585.596 188.469 592.427 195.684 592.427 195.684C592.427 195.684 596.964 200.158 601.206 197.033C602.46 196.089 603.337 194.73 603.679 193.198C603.887 192.365 603.984 191.507 603.967 190.648Z" fill="#00ADB5"/>
<path d="M581.794 185.881V186.188H592.868V185.823L581.794 185.881Z" fill="#00ADB5"/>
<path d="M585.328 189.082H585.679V188.066C585.679 188.066 586.804 187.197 588.67 188.066V188.98H589.309V188.379H588.996C588.996 188.379 589.123 187.152 587.04 187.344C587.04 187.344 585.366 187.191 585.405 188.245H585.021L585.328 189.082Z" fill="#00ADB5"/>
<path d="M78.6844 292.188H75.0549V373.928H78.6844V292.188Z" fill="#535461"/>
<path d="M101.496 373.678L101.266 377.36L100.947 382.556L100.812 384.722L100.493 389.924L100.352 392.091L100.033 397.287L96.3714 456.384C96.2153 458.927 95.0951 461.315 93.2393 463.061C91.3834 464.806 88.9318 465.778 86.3841 465.778H67.3552C64.8082 465.778 62.3573 464.806 60.5025 463.06C58.6477 461.314 57.5289 458.926 57.3743 456.384L53.6937 397.287L53.3743 392.091L53.2401 389.924L52.927 384.709L52.7928 382.543L52.4733 377.347L52.2433 373.666C52.1996 372.959 52.3011 372.251 52.5416 371.585C52.782 370.92 53.1562 370.31 53.6411 369.795C54.1261 369.279 54.7115 368.868 55.3612 368.588C56.011 368.307 56.7113 368.163 57.419 368.163H96.3267C97.0353 368.162 97.7365 368.307 98.3869 368.589C99.0372 368.87 99.6228 369.282 100.107 369.799C100.592 370.316 100.965 370.928 101.204 371.595C101.443 372.262 101.542 372.971 101.496 373.678Z" fill="#3F3D56"/>
<path d="M101.266 377.36L100.946 382.556H52.7863L52.4668 377.36H101.266Z" fill="#9D9CB5"/>
<path d="M100.812 384.722L100.493 389.924H53.2465L52.9207 384.722H100.812Z" fill="#9D9CB5"/>
<path d="M100.352 392.091L100.033 397.287H53.7065L53.3806 392.091H100.352Z" fill="#9D9CB5"/>
<path d="M46.927 322.826C68.0646 338.119 76.8698 362.047 76.8698 362.047C76.8698 362.047 51.3935 361.171 30.224 345.878C9.05449 330.584 0.28125 306.657 0.28125 306.657C0.28125 306.657 25.7831 307.532 46.927 322.826Z" fill="#00ADB5"/>
<path d="M0.312988 306.657C0.312988 306.657 26.7541 321.356 35.2334 333.499C43.7127 345.641 76.8696 362.053 76.8696 362.053" stroke="#535461" stroke-width="2" stroke-miterlimit="10"/>
<path d="M60.5693 292.041C72.071 300.349 76.8698 313.386 76.8698 313.386C76.8698 313.386 63.0038 312.913 51.4957 304.586C39.9876 296.259 35.2017 283.24 35.2017 283.24C35.2017 283.24 49.0676 283.681 60.5693 292.041Z" fill="#00ADB5"/>
<path d="M35.2017 283.208C35.2017 283.208 49.5916 291.197 54.205 297.812C58.8185 304.426 76.8698 313.355 76.8698 313.355" stroke="#535461" stroke-width="2" stroke-miterlimit="10"/>
<path d="M93.592 312.696C80.3715 327.223 77.5791 346.204 77.5791 346.204C77.5791 346.204 96.2119 341.635 109.426 327.108C122.64 312.581 125.439 293.594 125.439 293.594C125.439 293.594 106.806 298.163 93.592 312.696Z" fill="#00ADB5"/>
<path d="M125.439 293.594C125.439 293.594 108.225 308.485 103.848 318.749C99.4707 329.012 77.5791 346.23 77.5791 346.23" stroke="#535461" stroke-width="2" stroke-miterlimit="10"/>
</g>
<defs>
<linearGradient id="paint0_linear" x1="377.831" y1="412.906" x2="377.831" y2="68.8623" gradientUnits="userSpaceOnUse">
<stop stop-color="#808080" stop-opacity="0.25"/>
<stop offset="0.54" stop-color="#808080" stop-opacity="0.12"/>
<stop offset="1" stop-color="#808080" stop-opacity="0.1"/>
</linearGradient>
<linearGradient id="paint1_linear" x1="117594" y1="308959" x2="117594" y2="104682" gradientUnits="userSpaceOnUse">
<stop stop-color="#808080" stop-opacity="0.25"/>
<stop offset="0.54" stop-color="#808080" stop-opacity="0.12"/>
<stop offset="1" stop-color="#808080" stop-opacity="0.1"/>
</linearGradient>
<clipPath id="clip0">
<rect width="732" height="524" fill="white"/>
</clipPath>
</defs>
</svg>
