<svg width="42" height="48" viewBox="0 0 42 48" fill="none" xmlns="http://www.w3.org/2000/svg">
<path d="M30.3333 36V28.8H14V19.2H30.3333V12L42 24L30.3333 36ZM25.6667 0C26.9043 0 28.0913 0.505713 28.9665 1.40589C29.8417 2.30606 30.3333 3.52696 30.3333 4.8V9.6H25.6667V4.8H4.66667V43.2H25.6667V38.4H30.3333V43.2C30.3333 44.473 29.8417 45.6939 28.9665 46.5941C28.0913 47.4943 26.9043 48 25.6667 48H4.66667C3.42899 48 2.242 47.4943 1.36683 46.5941C0.491665 45.6939 0 44.473 0 43.2V4.8C0 3.52696 0.491665 2.30606 1.36683 1.40589C2.242 0.505713 3.42899 0 4.66667 0H25.6667Z" fill="#00ADB5"/>
</svg>
