<svg width="240" height="185" viewBox="0 0 240 185" fill="none" xmlns="http://www.w3.org/2000/svg">
<path d="M216 36.9551H204V55.4551H216V129.455H204V147.955H216C229.236 147.955 240 139.658 240 129.455V55.4551C240 45.2616 229.224 36.9551 216 36.9551V36.9551ZM48 73.9551H155.94V110.955H48V73.9551Z" fill="#00ADB5"/>
<path d="M180 147.954V18.5H215.94V0H119.94V18.5H156V36.9537H24C10.764 36.9537 0 45.251 0 55.4537V129.454C0 139.656 10.764 147.954 24 147.954H156V166.5H119.94V185H215.94V166.5H180V147.954ZM24 129.454V55.4537H156V129.454H24Z" fill="#00ADB5"/>
</svg>
