<svg width="729" height="437" viewBox="0 0 729 437" fill="none" xmlns="http://www.w3.org/2000/svg">
<g clip-path="url(#clip0)">
<path d="M558.139 432.058C548.806 424.151 543.137 411.66 544.624 399.499C546.111 387.339 555.319 376.159 567.263 373.577C579.208 370.995 592.824 378.143 596.452 389.842C598.448 367.287 600.749 343.787 612.709 324.579C623.539 307.186 642.295 294.741 662.624 292.515C682.952 290.289 704.355 298.698 717.033 314.785C729.711 330.873 732.815 354.26 723.936 372.73C717.395 386.336 705.344 396.462 692.717 404.7C651.917 431.095 602.982 441.829 554.916 434.926L558.139 432.058Z" fill="#F2F2F2"/>
<path d="M696.931 299.164C680.157 312.862 664.77 328.183 650.99 344.904C629.425 370.983 611.974 400.222 599.246 431.603C598.314 433.893 602.022 434.889 602.943 432.625C623.769 381.625 657.016 336.673 699.642 301.882C701.556 300.319 698.829 297.614 696.931 299.164Z" fill="white"/>
<path d="M234.677 429.91C247.496 419.049 255.283 401.892 253.241 385.19C251.199 368.487 238.551 353.133 222.145 349.586C205.739 346.039 187.038 355.857 182.055 371.926C179.313 340.946 176.153 308.668 159.726 282.286C144.851 258.398 119.089 241.305 91.1679 238.247C63.2471 235.189 33.8501 246.739 16.4369 268.835C-0.97627 290.931 -5.23981 323.054 6.95592 348.422C15.9401 367.11 32.4921 381.018 49.8345 392.333C105.163 428.431 173.797 443.486 239.104 433.849" fill="#F2F2F2"/>
<path d="M44.0473 247.379C67.0854 266.194 88.2204 287.236 107.147 310.203C126.076 333.146 142.741 357.876 156.908 384.045C164.827 398.725 171.94 413.827 178.217 429.285C179.497 432.429 174.404 433.798 173.139 430.689C162.021 403.437 148.267 377.344 132.073 352.783C115.957 328.311 97.5122 305.464 76.9966 284.563C65.3929 272.747 53.1501 261.58 40.3235 251.112C37.6944 248.966 41.4399 245.25 44.0473 247.379L44.0473 247.379Z" fill="white"/>
<path d="M523.288 436.043H217.443V121.403C217.443 54.4611 271.76 0 338.524 0H402.207C468.971 0 523.288 54.4611 523.288 121.403V436.043Z" fill="#F2F2F2"/>
<path d="M459.605 436.044H217.443V121.403C217.376 95.7527 225.477 70.7503 240.566 50.0365C241.123 49.2763 241.677 48.526 242.25 47.7839C249.548 38.1859 258.234 29.7332 268.019 22.7046C268.572 22.3013 269.127 21.905 269.69 21.5088C277.879 15.8271 286.737 11.1825 296.062 7.68055C296.616 7.4701 297.179 7.25923 297.743 7.05698C306.177 4.03919 314.92 1.97201 323.81 0.893628C324.361 0.81814 324.927 0.759069 325.493 0.699997C334.156 -0.228775 342.894 -0.228775 351.557 0.699997C352.121 0.759069 352.687 0.818132 353.245 0.894436C362.133 1.97289 370.873 4.03981 379.305 7.05702C379.869 7.25927 380.433 7.47012 380.988 7.68099C390.198 11.1387 398.952 15.7141 407.053 21.3049C407.616 21.6926 408.179 22.0889 408.734 22.4851C414.219 26.411 419.372 30.7846 424.138 35.5614C427.961 39.3929 431.523 43.477 434.8 47.7864C435.371 48.526 435.926 49.2764 436.481 50.0353C451.571 70.7493 459.672 95.7522 459.605 121.403V436.044Z" fill="#CCCCCC"/>
<path d="M439.914 295.316C447.318 295.316 453.321 289.298 453.321 281.874C453.321 274.45 447.318 268.431 439.914 268.431C432.509 268.431 426.507 274.45 426.507 281.874C426.507 289.298 432.509 295.316 439.914 295.316Z" fill="#00ADB5"/>
<path d="M498.233 426.619H487.96L483.072 386.89L498.235 386.89L498.233 426.619Z" fill="#FFB8B8"/>
<path d="M480.622 423.676H500.434V436.184H468.148C468.148 434.541 468.47 432.915 469.097 431.397C469.724 429.88 470.643 428.501 471.801 427.34C472.96 426.178 474.335 425.257 475.848 424.628C477.362 424 478.984 423.676 480.622 423.676Z" fill="#2F2E41"/>
<path d="M549.347 426.619H539.074L534.186 386.89L549.348 386.89L549.347 426.619Z" fill="#FFB8B8"/>
<path d="M531.736 423.676H551.548V436.184H519.261C519.261 434.541 519.584 432.915 520.211 431.397C520.838 429.88 521.757 428.501 522.915 427.34C524.073 426.178 525.449 425.257 526.962 424.628C528.475 424 530.098 423.676 531.736 423.676Z" fill="#2F2E41"/>
<path d="M446.699 284.537C445.96 283.445 445.469 282.204 445.26 280.901C445.051 279.599 445.129 278.266 445.49 276.997C445.85 275.728 446.483 274.553 447.345 273.556C448.207 272.559 449.277 271.764 450.479 271.226L485.4 174.72L502.584 184.122L462.711 276.347C463.478 278.431 463.456 280.725 462.649 282.794C461.842 284.863 460.306 286.563 458.333 287.573C456.359 288.582 454.085 288.831 451.941 288.271C449.796 287.712 447.931 286.383 446.699 284.537Z" fill="#FFB8B8"/>
<path d="M544.099 302.671C542.957 302.015 541.973 301.115 541.216 300.036C540.458 298.957 539.946 297.725 539.715 296.426C539.484 295.127 539.539 293.793 539.878 292.518C540.217 291.243 540.83 290.058 541.675 289.046L530.857 186.959L550.412 187.855L554.908 288.271C556.509 289.807 557.492 291.878 557.672 294.092C557.852 296.307 557.215 298.51 555.883 300.285C554.55 302.06 552.615 303.283 550.443 303.723C548.271 304.163 546.014 303.788 544.099 302.671Z" fill="#FFB8B8"/>
<path d="M512.902 156.844C524.269 156.844 533.483 147.605 533.483 136.209C533.483 124.812 524.269 115.574 512.902 115.574C501.536 115.574 492.322 124.812 492.322 136.209C492.322 147.605 501.536 156.844 512.902 156.844Z" fill="#FFB8B8"/>
<path d="M543.968 279.453H481.922L481.996 278.969C482.108 278.245 493.054 206.346 484.981 182.824C484.171 180.513 484.242 177.982 485.181 175.72C486.12 173.458 487.86 171.624 490.066 170.572H490.067C501.606 165.123 523.758 158.414 542.454 174.696C545.205 177.132 547.354 180.176 548.729 183.587C550.105 186.999 550.67 190.684 550.38 194.353L543.968 279.453Z" fill="#00ADB5"/>
<path d="M493.838 216.972L465.905 211.29L478.998 180.179C479.782 177.165 481.725 174.587 484.403 173.008C487.08 171.43 490.272 170.981 493.279 171.759C496.286 172.537 498.863 174.48 500.444 177.16C502.024 179.841 502.48 183.041 501.711 186.058L493.838 216.972Z" fill="#00ADB5"/>
<path d="M529.615 227.522L527.935 188.924C526.662 181.668 530.804 174.809 537.176 173.688C543.548 172.571 549.771 177.603 551.05 184.912L557.362 220.979L529.615 227.522Z" fill="#00ADB5"/>
<path d="M541.903 274.832C551.887 312.956 552.976 361.427 550.283 414.299L536.876 412.618L512.576 311.799L499.169 414.299L484.086 413.459C479.58 357.983 475.193 310.358 482.41 279.033L541.903 274.832Z" fill="#2F2E41"/>
<path d="M526.463 152.157C522.624 156.257 515.493 154.056 514.993 148.454C514.954 148.019 514.957 147.581 515.002 147.147C515.26 144.665 516.69 142.413 516.347 139.793C516.27 139.14 516.027 138.519 515.643 137.987C512.584 133.879 505.402 139.824 502.514 136.106C500.744 133.826 502.825 130.235 501.466 127.687C499.673 124.323 494.362 125.983 491.031 124.14C487.325 122.091 487.547 116.39 489.986 112.922C492.961 108.693 498.178 106.436 503.329 106.111C508.48 105.786 513.596 107.182 518.405 109.061C523.869 111.196 529.288 114.147 532.651 118.965C536.74 124.823 537.133 132.7 535.088 139.55C533.844 143.717 529.598 148.808 526.463 152.157Z" fill="#2F2E41"/>
<path d="M703.847 436.584H85.2072C84.9431 436.583 84.6901 436.478 84.5036 436.29C84.3171 436.103 84.2124 435.849 84.2124 435.584C84.2124 435.319 84.3171 435.065 84.5036 434.878C84.6901 434.69 84.9431 434.584 85.2072 434.583H703.847C704.111 434.584 704.364 434.69 704.55 434.878C704.737 435.065 704.841 435.319 704.841 435.584C704.841 435.849 704.737 436.103 704.55 436.29C704.364 436.478 704.111 436.583 703.847 436.584Z" fill="#3F3D56"/>
<path d="M392.99 344.886H284.059C282.624 344.894 281.245 344.331 280.224 343.32C279.203 342.31 278.623 340.935 278.612 339.496V95.7074C278.623 94.269 279.203 92.8937 280.224 91.8833C281.245 90.8728 282.624 90.3097 284.059 90.3175H392.99C394.424 90.3097 395.803 90.8728 396.824 91.8833C397.846 92.8937 398.425 94.269 398.436 95.7074V339.496C398.425 340.935 397.846 342.31 396.824 343.32C395.803 344.331 394.424 344.894 392.99 344.886Z" fill="white"/>
<path d="M398.436 169.2H278.612V170.88H398.436V169.2Z" fill="#CCCCCC"/>
<path d="M398.855 265.071H279.031V266.751H398.855V265.071Z" fill="#CCCCCC"/>
<path d="M317.995 90.3174H316.319V345.726H317.995V90.3174Z" fill="#CCCCCC"/>
<path d="M359.891 90.3174H358.216V345.726H359.891V90.3174Z" fill="#CCCCCC"/>
</g>
<defs>
<clipPath id="clip0">
<rect width="729" height="437" fill="white"/>
</clipPath>
</defs>
</svg>
