<svg width="80" height="66" viewBox="0 0 80 66" fill="none" xmlns="http://www.w3.org/2000/svg">
<path d="M80 7.81075C77.058 9.13067 73.8976 10.0225 70.5752 10.4256C74.0033 8.34868 76.5681 5.07984 77.7909 1.22901C74.5701 3.16604 71.045 4.5295 67.369 5.26011C64.897 2.58769 61.6227 0.816366 58.0545 0.221148C54.4864 -0.37407 50.8239 0.240117 47.6358 1.96836C44.4477 3.69659 41.9124 6.44219 40.4233 9.77887C38.9343 13.1156 38.575 16.8566 39.401 20.4213C32.8748 20.0895 26.4904 18.372 20.6621 15.3803C14.8339 12.3886 9.69203 8.18947 5.57033 3.05549C4.16101 5.51696 3.35066 8.37083 3.35066 11.4102C3.34908 14.1463 4.01456 16.8406 5.28804 19.2538C6.56152 21.6671 8.40363 23.7248 10.6509 25.2443C8.04466 25.1604 5.4959 24.4473 3.21677 23.1646V23.3786C3.21651 27.2162 4.52755 30.9356 6.92745 33.9058C9.32734 36.8761 12.6683 38.9141 16.3833 39.6742C13.9656 40.3367 11.4308 40.4343 8.97032 39.9596C10.0185 43.2616 12.0602 46.149 14.8097 48.2177C17.5592 50.2864 20.8788 51.4328 24.3037 51.4964C18.4897 56.1176 11.3094 58.6243 3.91791 58.6132C2.60858 58.6136 1.30037 58.5362 0 58.3814C7.50278 63.2657 16.2366 65.8579 25.1563 65.8478C55.351 65.8478 71.8577 40.5268 71.8577 18.5663C71.8577 17.8528 71.84 17.1322 71.8083 16.4187C75.0191 14.0678 77.7906 11.1565 79.993 7.82146L80 7.81075V7.81075Z" fill="#EEEEEE"/>
</svg>
