<svg width="1440" height="333" viewBox="0 0 1440 333" fill="none" xmlns="http://www.w3.org/2000/svg">
<path fill-rule="evenodd" clip-rule="evenodd" d="M0 199.8L24 216.45C48 233.1 96 266.4 144 249.75C192 233.1 240 166.5 288 127.65C336 88.8 384 77.7 432 116.55C480 155.4 528 244.2 576 238.65C624 233.1 672 133.2 720 111C768 88.8 816 144.3 864 172.05C912 199.8 960 199.8 1008 194.25C1056 188.7 1104 177.6 1152 144.3C1200 111 1248 55.5 1296 27.75C1344 0 1392 0 1416 0H1440V333H1416C1392 333 1344 333 1296 333C1248 333 1200 333 1152 333C1104 333 1056 333 1008 333C960 333 912 333 864 333C816 333 768 333 720 333C672 333 624 333 576 333C528 333 480 333 432 333C384 333 336 333 288 333C240 333 192 333 144 333C96 333 48 333 24 333H0V199.8Z" fill="#00ADB5"/>
</svg>
