<svg width="1440" height="455" viewBox="0 0 1440 455" fill="none" xmlns="http://www.w3.org/2000/svg">
<path fill-rule="evenodd" clip-rule="evenodd" d="M0 273L24 295.75C48 318.5 96 364 144 341.25C192 318.5 240 227.5 288 174.417C336 121.333 384 106.167 432 159.25C480 212.333 528 333.667 576 326.083C624 318.5 672 182 720 151.667C768 121.333 816 197.167 864 235.083C912 273 960 273 1008 265.417C1056 257.833 1104 242.667 1152 197.167C1200 151.667 1248 75.8333 1296 37.9167C1344 0 1392 0 1416 0H1440V455H1416C1392 455 1344 455 1296 455C1248 455 1200 455 1152 455C1104 455 1056 455 1008 455C960 455 912 455 864 455C816 455 768 455 720 455C672 455 624 455 576 455C528 455 480 455 432 455C384 455 336 455 288 455C240 455 192 455 144 455C96 455 48 455 24 455H0V273Z" fill="#00ADB5"/>
</svg>
