<svg width="80" height="56" viewBox="0 0 80 56" fill="none" xmlns="http://www.w3.org/2000/svg">
<path d="M78.3304 8.74777C77.875 7.05385 76.9821 5.50909 75.7411 4.26809C74.5 3.0271 72.9544 2.1334 71.2589 1.67643C65.0179 3.40164e-07 40 0 40 0C40 0 14.9821 -3.40164e-07 8.74107 1.66752C7.04483 2.123 5.49843 3.0162 4.25719 4.25742C3.01596 5.49865 2.12356 7.0442 1.66964 8.73885C-3.40598e-07 14.9809 0 28 0 28C0 28 -3.40598e-07 41.0191 1.66964 47.2522C2.58929 50.6943 5.30357 53.4051 8.74107 54.3236C14.9821 56 40 56 40 56C40 56 65.0179 56 71.2589 54.3236C74.7054 53.4051 77.4107 50.6943 78.3304 47.2522C80 41.0191 80 28 80 28C80 28 80 14.9809 78.3304 8.74777ZM32.0536 39.949V16.051L52.7679 27.9108L32.0536 39.949Z" fill="#EEEEEE"/>
</svg>
