<svg width="182" height="134" viewBox="0 0 182 134" fill="none" xmlns="http://www.w3.org/2000/svg">
<path d="M61.0386 12.3896L20.4888 67L61.0386 121.61C61.7084 122.501 62.1662 123.496 62.3857 124.538C62.6052 125.58 62.582 126.65 62.3175 127.685C62.0529 128.719 61.5523 129.699 60.8443 130.567C60.1364 131.436 59.2351 132.175 58.1923 132.744C57.1495 133.313 55.9858 133.699 54.7681 133.881C53.5505 134.063 52.3029 134.036 51.0972 133.803C49.8914 133.57 48.7513 133.135 47.7425 132.523C46.7336 131.911 45.8759 131.135 45.2187 130.237L1.46553 71.3135C0.508384 70.0243 0 68.528 0 67C0 65.472 0.508384 63.9757 1.46553 62.6865L45.2187 3.76255C46.5609 1.97865 48.6723 0.722394 51.0916 0.268116C53.511 -0.186161 56.0419 0.198454 58.1315 1.33797C60.2211 2.47749 61.6997 4.27932 62.2443 6.34998C62.789 8.42064 62.3555 10.5919 61.0386 12.3896ZM179.797 62.6865L136.044 3.76255C135.387 2.86545 134.529 2.08856 133.52 1.4766C132.511 0.864632 131.371 0.429661 130.165 0.19671C128.96 -0.036241 127.712 -0.0625745 126.494 0.119224C125.277 0.301023 124.113 0.687367 123.07 1.25603C122.028 1.82469 121.126 2.56444 120.418 3.43273C119.71 4.30102 119.21 5.28071 118.945 6.31544C118.681 7.35017 118.657 8.4195 118.877 9.46194C119.096 10.5044 119.554 11.4993 120.224 12.3896L160.774 67L120.224 121.61C119.554 122.501 119.096 123.496 118.877 124.538C118.657 125.58 118.681 126.65 118.945 127.685C119.21 128.719 119.71 129.699 120.418 130.567C121.126 131.436 122.028 132.175 123.07 132.744C124.113 133.313 125.277 133.699 126.494 133.881C127.712 134.063 128.96 134.036 130.165 133.803C131.371 133.57 132.511 133.135 133.52 132.523C134.529 131.911 135.387 131.135 136.044 130.237L179.797 71.3135C180.754 70.0243 181.263 68.528 181.263 67C181.263 65.472 180.754 63.9757 179.797 62.6865Z" fill="#303841"/>
<rect x="51.5674" y="30.8145" width="66.081" height="10.7331" rx="5.36657" fill="#00ADB5"/>
<rect x="60.8595" y="89.5908" width="66.081" height="10.7331" rx="5.36657" fill="#FF1C89"/>
<rect x="83.0587" y="46.6587" width="54.7233" height="6.13323" rx="3.06661" fill="#FF1C89"/>
<rect x="36.079" y="57.3921" width="110.995" height="7.66653" rx="3.83327" fill="#C4C4C4"/>
<rect x="44.3396" y="69.1465" width="47.4957" height="6.13323" rx="3.06661" fill="#C4C4C4"/>
<rect x="84.6074" y="79.8804" width="48.5282" height="6.13323" rx="3.06661" fill="#00ADB5"/>
</svg>
